<svg xmlns="http://www.w3.org/2000/svg" width="300" height="300" viewBox="0 0 300 300" version="1.1"><path d="M 15.360 132.747 L 26.220 133.070 25.754 135.505 C 25.498 136.844, 25.674 137.702, 26.144 137.411 C 26.615 137.120, 27 135.784, 27 134.441 L 27 132 15.750 132.212 L 4.500 132.425 15.360 132.747 M 42 132.750 C 42 133.162, 43.350 133.500, 45 133.500 C 46.650 133.500, 48 133.162, 48 132.750 C 48 132.338, 46.650 132, 45 132 C 43.350 132, 42 132.338, 42 132.750 M 72.784 132.738 C 75.689 132.941, 80.189 132.939, 82.784 132.734 C 85.378 132.528, 83 132.363, 77.500 132.365 C 72 132.368, 69.878 132.536, 72.784 132.738 M 105.116 134.250 C 105.203 135.943, 105.345 136.067, 105.689 134.750 C 106.408 132.001, 109.702 132.641, 110.838 135.750 C 111.390 137.262, 111.878 137.908, 111.921 137.184 C 112.080 134.540, 109.896 132, 107.465 132 C 105.541 132, 105.025 132.494, 105.116 134.250 M 132.951 136.097 C 131.801 138.350, 131.046 140.380, 131.274 140.607 C 131.501 140.834, 132.517 139.180, 133.532 136.930 C 135.057 133.547, 135.777 132.915, 137.688 133.281 C 138.960 133.524, 140 133.335, 140 132.861 C 140 132.388, 138.884 132, 137.520 132 C 135.624 132, 134.549 132.964, 132.951 136.097 M 162.667 132.667 C 162.300 133.033, 162.007 133.821, 162.015 134.417 C 162.025 135.137, 162.277 135.115, 162.765 134.351 C 163.169 133.719, 164.625 132.993, 166 132.737 L 168.500 132.272 165.917 132.136 C 164.496 132.061, 163.033 132.300, 162.667 132.667 M 188.116 134.250 C 188.200 135.883, 188.355 136.030, 188.682 134.788 C 189.054 133.372, 190.634 133.018, 197.816 132.744 L 206.500 132.411 197.250 132.206 C 188.233 132.005, 188.003 132.057, 188.116 134.250 M 219.160 135.750 C 219.318 139.442, 219.326 139.450, 219.723 136.250 C 220.101 133.210, 220.378 133, 224.013 133 L 227.900 133 228.261 138.750 L 228.622 144.500 228.811 138.250 L 229 132 224 132 L 219 132 219.160 135.750 M 237.737 132.750 C 237.528 133.162, 237.673 134.850, 238.060 136.500 L 238.763 139.500 238.882 136.250 L 239 133 248.434 133 L 257.867 133 258.284 135.750 C 258.671 138.310, 258.711 138.275, 258.850 135.250 L 259 132 248.559 132 C 242.816 132, 237.947 132.338, 237.737 132.750 M 268.264 132.718 C 269.784 132.947, 272.034 132.941, 273.264 132.704 C 274.494 132.467, 273.250 132.279, 270.500 132.286 C 267.750 132.294, 266.744 132.488, 268.264 132.718 M 293.534 132.799 C 290.227 133.218, 284.881 138.127, 286.973 138.824 C 287.860 139.120, 287.901 139.443, 287.113 139.930 C 286.332 140.413, 286.456 141.197, 287.527 142.559 C 288.975 144.398, 289.033 144.337, 288.636 141.384 C 288.405 139.670, 288.611 137.645, 289.093 136.884 C 289.659 135.989, 289.975 137.378, 289.985 140.809 C 289.995 144.229, 290.370 145.889, 291.041 145.475 C 291.613 145.121, 291.808 143.970, 291.473 142.916 C 291.026 141.505, 291.344 141.004, 292.683 141.015 C 296.721 141.049, 298.031 144.701, 294.500 146.079 C 293.157 146.603, 293.002 146.883, 294.027 146.930 C 294.868 146.968, 296.607 146.263, 297.892 145.363 C 299.910 143.949, 300.161 143.116, 299.726 139.260 C 299.127 133.947, 297.541 132.292, 293.534 132.799 M 5.770 147.340 C 6.190 167.842, 6.635 170.051, 6.810 152.500 C 6.898 143.700, 6.639 135.978, 6.235 135.340 C 5.831 134.702, 5.621 140.102, 5.770 147.340 M 210.497 136.254 C 212.475 139.387, 212.697 145.783, 210.947 149.197 C 209.818 151.399, 209.846 151.424, 211.575 149.772 C 214.381 147.093, 214.076 138.604, 211.072 135.720 L 208.759 133.500 210.497 136.254 M 295.331 135.581 C 294.967 136.529, 293.979 136.966, 292.862 136.674 C 291.838 136.406, 291 136.648, 291 137.210 C 291 137.773, 292.125 138.018, 293.500 137.755 C 295.948 137.287, 297.082 138.473, 294.887 139.204 C 294.274 139.409, 294.949 140.111, 296.387 140.766 C 298.785 141.859, 298.994 141.774, 298.921 139.729 C 298.878 138.503, 298.615 138.063, 298.338 138.750 C 297.380 141.123, 296.263 139.991, 296.612 137 C 296.988 133.767, 296.313 133.019, 295.331 135.581 M 68.411 152 C 68.411 161.625, 68.561 165.563, 68.745 160.750 C 68.928 155.937, 68.928 148.062, 68.745 143.250 C 68.561 138.438, 68.411 142.375, 68.411 152 M 76.419 136.349 C 76.135 137.091, 76.036 140.799, 76.201 144.589 C 76.450 150.328, 76.796 151.506, 78.270 151.638 C 79.510 151.749, 79.585 151.655, 78.520 151.325 C 77.341 150.959, 77 149.205, 77 143.496 C 77 136.662, 77.160 136.108, 79.250 135.706 L 81.500 135.272 79.219 135.136 C 77.964 135.061, 76.704 135.607, 76.419 136.349 M 91.032 135.559 C 91.014 136.141, 91.661 137.491, 92.468 138.559 C 93.276 139.626, 93.951 140.024, 93.968 139.441 C 93.986 138.859, 93.339 137.509, 92.532 136.441 C 91.724 135.374, 91.049 134.976, 91.032 135.559 M 196.199 142.750 L 196.397 150.500 196.741 143.314 C 197.051 136.831, 197.301 136.086, 199.293 135.700 C 201.133 135.343, 201.043 135.250, 198.750 135.136 L 196 135 196.199 142.750 M 266.413 152.500 C 266.414 162.400, 266.564 166.315, 266.746 161.199 C 266.928 156.084, 266.927 147.984, 266.744 143.199 C 266.561 138.415, 266.412 142.600, 266.413 152.500 M 15.750 136.706 C 16.988 136.944, 19.012 136.944, 20.250 136.706 C 21.488 136.467, 20.475 136.272, 18 136.272 C 15.525 136.272, 14.512 136.467, 15.750 136.706 M 82 136.378 C 82 136.585, 82.685 137.324, 83.523 138.019 C 84.796 139.076, 84.943 139.014, 84.416 137.641 C 83.878 136.240, 82 135.257, 82 136.378 M 160.624 137.539 C 159.659 140.053, 159.943 140.702, 161.122 138.675 C 161.706 137.671, 161.973 136.639, 161.715 136.382 C 161.458 136.124, 160.966 136.645, 160.624 137.539 M 202.533 136.828 C 202.908 137.559, 203.578 139.359, 204.021 140.828 C 204.669 142.972, 204.845 143.093, 204.914 141.441 C 204.961 140.309, 204.292 138.509, 203.426 137.441 C 202.560 136.374, 202.158 136.098, 202.533 136.828 M 246.193 142.750 L 246.385 149.500 246.739 143.308 L 247.092 137.115 250.796 136.726 L 254.500 136.336 250.250 136.168 L 246 136 246.193 142.750 M 140.252 140.500 C 140.263 142.700, 140.468 143.482, 140.707 142.238 C 140.946 140.994, 140.937 139.194, 140.687 138.238 C 140.437 137.282, 140.241 138.300, 140.252 140.500 M 274.460 152.249 L 274.500 167.500 279.256 167.592 L 284.013 167.684 279.532 167.288 L 275.052 166.893 274.735 151.945 L 274.419 136.998 274.460 152.249 M 49.579 140.250 C 51.498 146.301, 53.862 152.386, 53.927 151.444 C 54.027 150, 49.933 138, 49.341 138 C 49.079 138, 49.186 139.012, 49.579 140.250 M 104.158 141 C 104.158 142.375, 104.385 142.938, 104.662 142.250 C 104.940 141.563, 104.940 140.438, 104.662 139.750 C 104.385 139.063, 104.158 139.625, 104.158 141 M 114 143.500 C 115.170 146.250, 116.572 148.950, 117.116 149.500 C 118.360 150.757, 114.108 140.861, 112.819 139.500 C 112.299 138.950, 112.830 140.750, 114 143.500 M 188.389 151.500 C 188.390 158.650, 188.550 161.444, 188.742 157.708 C 188.935 153.973, 188.934 148.123, 188.739 144.708 C 188.545 141.294, 188.387 144.350, 188.389 151.500 M 37.500 145 C 36.563 147.821, 35.997 150.330, 36.243 150.576 C 36.488 150.821, 37.440 148.698, 38.357 145.857 C 39.275 143.016, 39.840 140.507, 39.615 140.281 C 39.389 140.055, 38.437 142.179, 37.500 145 M 85.232 143 C 85.232 144.925, 85.438 145.713, 85.689 144.750 C 85.941 143.787, 85.941 142.213, 85.689 141.250 C 85.438 140.287, 85.232 141.075, 85.232 143 M 170.566 142.250 C 171.878 146.460, 172.949 149, 173.415 149 C 173.670 149, 173.189 146.975, 172.345 144.500 C 170.809 139.992, 169.247 138.017, 170.566 142.250 M 13 145 C 13 147.200, 13.349 149, 13.776 149 C 14.203 149, 14.381 147.200, 14.171 145 C 13.962 142.800, 13.612 141, 13.395 141 C 13.178 141, 13 142.800, 13 145 M 158.116 144.098 C 157.502 145.858, 157.032 147.794, 157.070 148.399 C 157.109 149.005, 157.786 147.739, 158.574 145.587 C 159.363 143.435, 159.833 141.500, 159.620 141.286 C 159.406 141.073, 158.729 142.338, 158.116 144.098 M 161.488 146.374 C 160.605 148.487, 160.082 150.416, 160.326 150.659 C 160.569 150.903, 161.287 149.617, 161.920 147.801 C 162.839 145.166, 163.263 144.803, 164.020 146 C 164.542 146.825, 164.969 147.050, 164.969 146.500 C 164.969 145.950, 164.547 144.832, 164.031 144.016 C 163.293 142.848, 162.752 143.349, 161.488 146.374 M 41.345 145.543 C 40.445 147.889, 41.417 148.164, 42.796 145.955 C 43.569 144.717, 43.635 144, 42.977 144 C 42.405 144, 41.671 144.694, 41.345 145.543 M 91.841 146.645 C 91.103 148.183, 89.480 149.950, 88.232 150.572 C 86.985 151.193, 85.699 151.967, 85.375 152.292 C 84.777 152.890, 90.728 164, 91.647 164 C 91.922 164, 90.761 161.578, 89.068 158.619 L 85.989 153.237 88.481 151.605 C 91.259 149.784, 94.568 145.235, 93.726 144.393 C 93.427 144.093, 92.578 145.107, 91.841 146.645 M 127.636 147.636 C 126.689 149.623, 126.132 151.466, 126.399 151.732 C 126.665 151.998, 127.590 150.523, 128.455 148.455 C 130.495 143.572, 129.872 142.949, 127.636 147.636 M 103.232 148 C 103.232 149.925, 103.438 150.713, 103.689 149.750 C 103.941 148.787, 103.941 147.213, 103.689 146.250 C 103.438 145.287, 103.232 146.075, 103.232 148 M 141.232 148 C 141.232 149.925, 141.438 150.713, 141.689 149.750 C 141.941 148.787, 141.941 147.213, 141.689 146.250 C 141.438 145.287, 141.232 146.075, 141.232 148 M 204.079 146.095 C 203.973 148.239, 201.066 150.715, 198 151.273 L 195.500 151.728 198.076 151.864 C 201.008 152.019, 205.516 147.898, 204.686 145.821 C 204.309 144.879, 204.135 144.957, 204.079 146.095 M 44.031 146.500 C 44.031 147.050, 44.467 148.175, 45 149 C 45.533 149.825, 45.969 150.050, 45.969 149.500 C 45.969 148.950, 45.533 147.825, 45 147 C 44.467 146.175, 44.031 145.950, 44.031 146.500 M 130.035 150.655 C 128.902 153.215, 128.136 155.469, 128.331 155.665 C 128.527 155.860, 129.522 154.168, 130.543 151.904 C 132.088 148.478, 132.522 148.099, 133.129 149.644 C 133.717 151.138, 133.873 150.964, 133.930 148.750 C 134.036 144.609, 132.343 145.437, 130.035 150.655 M 106.136 149.750 C 106.269 152.439, 106.283 152.445, 106.737 150.011 C 107.193 147.567, 107.237 147.585, 109.162 151.011 C 110.240 152.930, 110.819 153.600, 110.448 152.500 C 110.077 151.400, 109.547 149.713, 109.270 148.750 C 108.442 145.872, 105.983 146.657, 106.136 149.750 M 22 148.383 C 22 148.594, 23.111 148.979, 24.470 149.239 C 25.828 149.499, 26.702 149.326, 26.411 148.856 C 25.899 148.027, 22 147.610, 22 148.383 M 254.853 148.731 C 257.787 149.091, 258.148 149.445, 257.742 151.571 C 257.486 152.907, 257.665 154, 258.139 154 C 258.612 154, 259 152.650, 259 151 C 259 148.172, 258.786 148.009, 255.250 148.160 L 251.500 148.320 254.853 148.731 M 39.624 150.539 C 38.659 153.053, 38.943 153.702, 40.122 151.675 C 40.706 150.671, 40.973 149.639, 40.715 149.382 C 40.458 149.124, 39.966 149.645, 39.624 150.539 M 155.345 151.543 C 155.019 152.392, 154.976 153.310, 155.249 153.583 C 155.523 153.856, 155.986 153.161, 156.279 152.040 C 156.903 149.657, 156.210 149.289, 155.345 151.543 M 118.044 151.216 C 117.963 152.526, 121.358 159, 122.126 159 C 122.542 159, 123.203 158.480, 123.595 157.845 C 124.028 157.145, 123.871 156.962, 123.196 157.379 C 122.536 157.787, 121.269 156.526, 120.085 154.284 C 118.987 152.203, 118.069 150.822, 118.044 151.216 M 166.524 153.354 C 167.088 156.196, 167.070 156.207, 162.543 155.847 C 159.784 155.627, 158.125 155.881, 158.325 156.493 C 158.507 157.047, 160.537 157.639, 162.837 157.808 C 167.587 158.158, 169.050 156.406, 167.107 152.695 C 166.043 150.661, 166 150.709, 166.524 153.354 M 14.061 153.426 C 13.395 154.229, 13.047 156.740, 13.264 159.176 L 13.651 163.500 13.825 158.750 L 14 154 18.250 153.900 C 21.860 153.816, 22.124 153.680, 20 153 C 16.252 151.800, 15.358 151.864, 14.061 153.426 M 174.031 152.500 C 174.031 153.050, 174.467 154.175, 175 155 C 175.533 155.825, 175.969 156.050, 175.969 155.500 C 175.969 154.950, 175.533 153.825, 175 153 C 174.467 152.175, 174.031 151.950, 174.031 152.500 M 246.384 153.442 C 246.080 154.234, 246.042 155.697, 246.299 156.692 C 246.671 158.124, 246.792 158.032, 246.884 156.250 C 246.982 154.351, 247.585 153.989, 250.750 153.930 C 253.758 153.873, 254.104 153.689, 252.500 153 C 249.421 151.677, 246.994 151.852, 246.384 153.442 M 102.158 155 C 102.158 156.375, 102.385 156.938, 102.662 156.250 C 102.940 155.563, 102.940 154.438, 102.662 153.750 C 102.385 153.063, 102.158 153.625, 102.158 155 M 141.690 158.608 C 142.007 161.848, 142.645 165.175, 143.108 166 C 143.588 166.854, 143.691 164.700, 143.347 161 C 143.014 157.425, 142.376 154.098, 141.929 153.608 C 141.481 153.117, 141.374 155.367, 141.690 158.608 M 38.281 155.500 C 38.486 157.165, 39.276 157.500, 43 157.500 C 46.465 157.500, 47.549 157.106, 47.810 155.750 C 47.995 154.787, 47.637 154, 47.014 154 C 46.392 154, 46.160 154.450, 46.500 155 C 46.872 155.603, 45.538 156, 43.142 156 C 40.930 156, 38.916 155.446, 38.601 154.750 C 38.290 154.063, 38.146 154.400, 38.281 155.500 M 76.173 161.250 L 76.345 168.500 76.923 162 L 77.500 155.500 79.276 158.750 C 80.252 160.537, 81.294 162, 81.590 162 C 81.886 162, 81.116 160.200, 79.880 158 C 78.643 155.800, 77.265 154, 76.816 154 C 76.367 154, 76.078 157.262, 76.173 161.250 M 105.300 159 C 105.300 162.025, 105.487 163.262, 105.716 161.750 C 105.945 160.238, 105.945 157.762, 105.716 156.250 C 105.487 154.738, 105.300 155.975, 105.300 159 M 134.252 157.500 C 134.263 159.700, 134.468 160.482, 134.707 159.238 C 134.946 157.994, 134.937 156.194, 134.687 155.238 C 134.437 154.282, 134.241 155.300, 134.252 157.500 M 196.150 157.250 C 196.285 160.191, 196.339 160.244, 196.711 157.807 C 197.058 155.535, 197.699 155.053, 200.811 154.725 L 204.500 154.336 200.250 154.168 C 196.059 154.002, 196.002 154.045, 196.150 157.250 M 152.624 158.539 C 151.659 161.053, 151.943 161.702, 153.122 159.675 C 153.706 158.671, 153.973 157.639, 153.715 157.382 C 153.458 157.124, 152.966 157.645, 152.624 158.539 M 176.031 157.500 C 176.031 158.050, 176.467 159.175, 177 160 C 177.533 160.825, 177.969 161.050, 177.969 160.500 C 177.969 159.950, 177.533 158.825, 177 158 C 176.467 157.175, 176.031 156.950, 176.031 157.500 M 101.158 161 C 101.158 162.375, 101.385 162.938, 101.662 162.250 C 101.940 161.563, 101.940 160.438, 101.662 159.750 C 101.385 159.063, 101.158 159.625, 101.158 161 M 35.459 161.067 C 35.096 161.653, 35.070 162.403, 35.400 162.733 C 35.730 163.063, 36 162.808, 36 162.167 C 36 161.398, 38.205 161, 42.460 161 L 48.920 161 50.162 165.145 C 50.845 167.425, 51.561 168.816, 51.754 168.238 C 51.947 167.659, 51.429 165.569, 50.603 163.593 L 49.102 160 42.610 160 C 39.039 160, 35.821 160.480, 35.459 161.067 M 57.031 160.500 C 57.031 161.050, 57.467 162.175, 58 163 C 58.533 163.825, 58.969 164.050, 58.969 163.500 C 58.969 162.950, 58.533 161.825, 58 161 C 57.467 160.175, 57.031 159.950, 57.031 160.500 M 157.500 160.597 C 162.118 161.348, 170.001 161.444, 170.001 160.750 C 170 160.338, 166.738 160.061, 162.750 160.136 C 158.762 160.211, 156.400 160.419, 157.500 160.597 M 228 165.500 L 228 171 224.063 171 C 220.371 171, 220.102 170.798, 219.723 167.750 C 219.326 164.550, 219.318 164.558, 219.160 168.250 L 219 172 224 172 L 229 172 229 166 C 229 162.700, 228.775 160, 228.500 160 C 228.225 160, 228 162.475, 228 165.500 M 30.624 162.539 C 29.659 165.053, 29.943 165.702, 31.122 163.675 C 31.706 162.671, 31.973 161.639, 31.715 161.382 C 31.458 161.124, 30.966 161.645, 30.624 162.539 M 114 161.383 C 114 162.456, 116.975 168, 117.551 168 C 117.826 168, 117.308 166.537, 116.399 164.750 C 114.542 161.100, 114 160.339, 114 161.383 M 196 166 L 196 171 192.500 171 C 189.900 171, 189 170.571, 189 169.333 C 189 167.397, 187.712 168.355, 187.393 170.529 C 187.228 171.653, 188.334 172, 192.088 172 L 197 172 197 166.500 C 197 163.475, 196.775 161, 196.500 161 C 196.225 161, 196 163.250, 196 166 M 150.624 163.539 C 149.659 166.053, 149.943 166.702, 151.122 164.675 C 151.706 163.671, 151.973 162.639, 151.715 162.382 C 151.458 162.124, 150.966 162.645, 150.624 163.539 M 246.136 165.250 C 246.005 167.906, 246.163 167.994, 250.750 167.825 L 255.500 167.651 251.312 167.271 C 247.951 166.966, 247.041 166.458, 246.699 164.696 C 246.346 162.879, 246.249 162.975, 246.136 165.250 M 14.158 166 C 14.158 167.375, 14.385 167.938, 14.662 167.250 C 14.940 166.563, 14.940 165.438, 14.662 164.750 C 14.385 164.063, 14.158 164.625, 14.158 166 M 33.453 167.398 C 32.945 170.106, 32.282 171, 30.780 171 C 29.119 171, 28.887 170.538, 29.400 168.250 L 30.016 165.500 28.544 168 C 26.405 171.630, 26.636 172.162, 30.192 171.813 C 32.875 171.550, 33.523 170.964, 34.249 168.140 C 34.725 166.293, 34.892 164.559, 34.621 164.288 C 34.351 164.017, 33.825 165.417, 33.453 167.398 M 179.340 165 C 179.552 165.825, 180.043 167.512, 180.430 168.750 C 181.080 170.825, 180.824 171, 177.151 171 C 174.899 171, 172.947 170.456, 172.662 169.750 C 172.267 168.771, 172.141 168.778, 172.079 169.781 C 171.970 171.546, 174.056 172.183, 178.731 171.813 L 182.691 171.500 180.822 167.500 C 179.795 165.300, 179.128 164.175, 179.340 165 M 84 167 C 84.589 168.100, 85.295 169, 85.570 169 C 85.845 169, 85.589 168.100, 85 167 C 84.411 165.900, 83.705 165, 83.430 165 C 83.155 165, 83.411 165.900, 84 167 M 93 167 C 93.589 168.100, 94.295 169, 94.570 169 C 94.845 169, 94.589 168.100, 94 167 C 93.411 165.900, 92.705 165, 92.430 165 C 92.155 165, 92.411 165.900, 93 167 M 100.158 167 C 100.158 168.375, 100.385 168.938, 100.662 168.250 C 100.940 167.563, 100.940 166.438, 100.662 165.750 C 100.385 165.063, 100.158 165.625, 100.158 167 M 135.160 168.250 L 135 172 139.441 172 C 144.241 172, 145.387 171.225, 143.949 168.952 C 143.187 167.748, 143.028 167.798, 143.015 169.250 C 143.004 170.574, 142.164 171, 139.563 171 C 136.436 171, 136.090 170.708, 135.723 167.750 C 135.326 164.550, 135.318 164.558, 135.160 168.250 M 238.150 167.168 C 238.067 168.086, 237.727 169.548, 237.393 170.418 C 236.862 171.802, 238.176 172, 247.893 172 L 259 172 259 169.500 C 259 167.756, 258.471 167.024, 257.250 167.079 C 256.205 167.126, 256.003 167.361, 256.750 167.662 C 257.438 167.940, 258 168.804, 258 169.583 C 258 170.705, 256.039 171, 248.566 171 L 239.133 171 238.716 168.250 C 238.487 166.738, 238.232 166.251, 238.150 167.168 M 60.536 168.859 C 61.176 171.120, 61.018 171.203, 56.697 170.859 C 54.219 170.661, 52.400 170.838, 52.654 171.250 C 52.909 171.662, 55.116 172, 57.559 172 C 62.130 172, 62.997 170.968, 60.919 168 C 60.108 166.841, 60.021 167.036, 60.536 168.859 M 104 169.617 C 104 170.802, 103.333 171.106, 101.500 170.755 C 100.125 170.492, 99 170.665, 99 171.139 C 99 171.612, 100.350 172, 102 172 C 104.333 172, 105 171.556, 105 170 C 105 168.900, 104.775 168, 104.500 168 C 104.225 168, 104 168.727, 104 169.617 M 153 169.437 C 153 170.308, 151.721 171.032, 149.750 171.277 C 146.550 171.674, 146.558 171.682, 150.250 171.840 C 153.387 171.974, 154 171.673, 154 170 C 154 168.900, 153.775 168, 153.500 168 C 153.225 168, 153 168.646, 153 169.437 M 117.584 170.359 C 118.372 172.413, 121.591 172.508, 122.362 170.500 C 122.678 169.675, 122.539 169, 122.052 169 C 121.565 169, 120.977 169.563, 120.746 170.250 C 120.419 171.221, 119.949 171.189, 118.640 170.109 C 117.169 168.894, 117.034 168.926, 117.584 170.359 M 5.915 171.315 C 6.367 171.767, 8.483 171.984, 10.618 171.797 L 14.500 171.458 9.796 170.975 C 7.210 170.710, 5.463 170.863, 5.915 171.315 M 86.653 171.250 C 86.909 171.662, 89.416 172, 92.226 172 C 95.035 172, 97.053 171.720, 96.711 171.378 C 95.813 170.479, 86.100 170.356, 86.653 171.250 M 70.264 171.718 C 71.784 171.947, 74.034 171.941, 75.264 171.704 C 76.494 171.467, 75.250 171.279, 72.500 171.286 C 69.750 171.294, 68.744 171.488, 70.264 171.718 M 272.287 171.740 C 275.469 171.939, 280.419 171.937, 283.287 171.736 C 286.154 171.535, 283.550 171.372, 277.500 171.374 C 271.450 171.376, 269.104 171.541, 272.287 171.740 M 149.447 193.753 C 231.917 193.893, 299.732 193.668, 300.147 193.253 C 300.561 192.839, 233.085 192.725, 150.200 193 L -0.500 193.500 149.447 193.753" stroke="none" fill="#07b4ae" fill-rule="evenodd"/><path d="M -0 151.510 L -0 193.006 150.250 192.753 L 300.500 192.500 300.761 151 L 301.022 109.500 150.511 109.756 L 0 110.013 -0 151.510 M 0.458 151.500 C 0.458 174.600, 0.589 183.907, 0.749 172.183 C 0.909 160.458, 0.909 141.558, 0.749 130.183 C 0.588 118.807, 0.457 128.400, 0.458 151.500 M 5.736 151.749 L 5.972 171.500 9.860 171.801 C 13.367 172.073, 13.796 171.845, 14.252 169.465 C 14.529 168.014, 14.524 163.941, 14.241 160.413 L 13.726 154 18.113 153.822 C 20.526 153.724, 23.250 153.643, 24.168 153.642 C 26.326 153.641, 27.307 149.055, 25.313 148.290 C 24.521 147.986, 22.755 148.246, 21.389 148.869 C 15.494 151.555, 13.837 149.891, 14.150 141.603 L 14.329 136.872 20.415 137.126 C 26.349 137.373, 26.508 137.313, 26.816 134.690 L 27.133 132 16.316 131.999 L 5.500 131.999 5.736 151.749 M 41.220 135.250 C 37.291 146.698, 32.809 158.444, 30.120 164.343 C 28.404 168.107, 27 171.369, 27 171.593 C 27 171.817, 28.364 172, 30.031 172 C 33.229 172, 33.278 171.933, 34.989 165.250 L 36.077 161 42.413 161 L 48.749 161 50.632 166.250 C 52.513 171.498, 52.516 171.500, 57.257 171.805 C 59.866 171.972, 62 171.677, 62 171.148 C 62 170.619, 60.712 167.317, 59.139 163.809 C 57.565 160.301, 54.332 151.709, 51.955 144.716 C 47.877 132.716, 47.484 132, 44.984 132 C 42.891 132, 42.101 132.682, 41.220 135.250 M 68.133 152 L 68.133 172 72.567 172 L 77 172 77 164.059 C 77 159.691, 77.375 155.886, 77.833 155.603 C 78.292 155.320, 78.667 155.649, 78.667 156.334 C 78.667 157.020, 80.562 160.825, 82.877 164.790 L 87.088 172 91.978 172 L 96.868 172 91.529 162.869 L 86.190 153.739 89.935 150.119 C 93.290 146.876, 93.654 146.032, 93.438 142 C 93.306 139.525, 93.153 137.199, 93.099 136.832 C 93.044 136.464, 91.484 135.226, 89.632 134.082 C 86.868 132.374, 84.637 132, 77.199 132 L 68.133 132 68.133 152 M 104.126 141.250 C 102.564 152.745, 100.085 167.922, 99.389 170.250 C 98.972 171.642, 99.474 172, 101.843 172 L 104.820 172 105.462 163.250 C 105.815 158.438, 106.427 152.955, 106.823 151.068 C 107.534 147.677, 107.603 147.762, 112.460 158.068 C 117.378 168.503, 117.641 169.132, 117.875 171 C 117.944 171.550, 118.900 172, 120 172 C 121.100 172, 122.056 171.550, 122.125 171 C 122.194 170.450, 122.308 169.662, 122.378 169.250 C 122.448 168.838, 124.734 163.858, 127.457 158.185 C 133.184 146.254, 133.442 146.389, 134.541 161.889 L 135.265 172.099 139.882 171.799 C 143.376 171.573, 144.418 171.135, 144.162 170 C 143.976 169.175, 143.622 165.575, 143.375 162 C 143.128 158.425, 142.667 154.825, 142.351 154 C 142.036 153.175, 141.654 150.025, 141.505 147 C 141.355 143.975, 140.900 139.338, 140.494 136.695 C 139.816 132.278, 139.549 131.915, 137.186 132.195 C 134.951 132.460, 133.891 134.091, 129.058 144.693 C 126.001 151.400, 123.176 157.199, 122.780 157.580 C 122.170 158.167, 114.922 143.915, 111.169 134.750 C 110.395 132.859, 109.315 132, 107.713 132 C 105.531 132, 105.302 132.589, 104.126 141.250 M 161.680 135.250 C 160.940 137.037, 159.536 140.750, 158.561 143.500 C 157.586 146.250, 156.427 149.400, 155.984 150.500 C 155.542 151.600, 153.584 156.438, 151.632 161.250 C 149.680 166.063, 148.402 170.007, 148.792 170.015 C 149.181 170.024, 148.825 170.467, 148 171 C 146.884 171.721, 147.461 171.973, 150.250 171.985 C 153.060 171.996, 154 171.590, 154 170.366 C 154 169.467, 154.527 166.974, 155.171 164.824 L 156.342 160.916 162.838 161.208 L 169.335 161.500 170.999 166.500 L 172.663 171.500 177.791 171.801 L 182.919 172.102 178.373 161.301 C 175.872 155.360, 173.645 149.600, 173.423 148.500 C 173.201 147.400, 171.830 143.238, 170.376 139.250 C 168.116 133.054, 167.390 132, 165.379 132 C 163.668 132, 162.660 132.886, 161.680 135.250 M 188.128 149.750 C 188.134 159.512, 188.074 167.725, 187.993 168 C 186.903 171.731, 187.183 172, 192.159 172 L 197.141 172 196.989 166.250 C 196.690 154.983, 196.685 155, 199.953 155 C 206.110 155, 212.489 150.563, 213.397 145.650 C 214.290 140.820, 212.731 136.749, 209.033 134.250 C 206.207 132.340, 204.377 132, 196.910 132 L 188.116 132 188.128 149.750 M 219.500 152 L 219.500 172 224.075 172 L 228.650 172 228.653 152 L 228.657 132 224.078 132 L 219.500 132 219.500 152 M 237.784 132.549 C 237.482 132.851, 237.599 134.764, 238.045 136.799 C 239.023 141.270, 238.634 167.788, 237.554 170.250 C 236.848 171.858, 237.689 172, 247.893 172 C 258.909 172, 259 171.981, 259 169.632 C 259 167.434, 258.590 167.254, 253.334 167.132 C 250.218 167.061, 247.422 166.755, 247.120 166.453 C 246.403 165.736, 246.406 155.260, 247.124 154.543 C 247.428 154.239, 250.224 153.880, 253.338 153.745 C 258.787 153.509, 258.999 153.397, 259 150.750 C 259 148.283, 258.646 148, 255.559 148 C 253.666 148, 251.840 148.450, 251.500 149 C 251.160 149.550, 250.009 150, 248.941 150 C 247.216 150, 247 149.267, 247 143.411 L 247 136.822 253.002 137.161 C 258.965 137.498, 259.004 137.482, 259.002 134.750 L 259 132 248.667 132 C 242.983 132, 238.086 132.247, 237.784 132.549 M 266.069 150.288 C 265.976 160.347, 266.196 169.347, 266.557 170.288 C 267.118 171.750, 268.712 172, 277.468 172 L 287.723 172 287.242 169.484 C 286.977 168.100, 286.252 167.028, 285.630 167.102 C 285.009 167.176, 282.363 167.184, 279.750 167.118 L 275 167 275 149.500 L 275 132 270.619 132 L 266.238 132 266.069 150.288 M 288.959 134.887 C 285.811 138.035, 285.700 140.906, 288.603 144.113 C 290.597 146.317, 292.324 145.596, 291.473 142.916 C 291.010 141.457, 291.350 141, 292.897 141 C 295.339 141, 297.820 144.799, 295.793 145.436 C 291.786 146.693, 291.556 146.844, 293.527 146.921 C 297.498 147.076, 300 144.245, 300 139.598 C 300 132.018, 294.272 129.574, 288.959 134.887 M 77 143.500 C 77 150.333, 77.178 151, 79 151 C 82.286 151, 85 147.452, 85 143.155 C 85 138.857, 82.672 136, 79.171 136 C 77.136 136, 77 136.469, 77 143.500 M 196.829 143.502 C 196.520 150.557, 196.625 151.005, 198.595 151.002 C 201.678 150.999, 204.409 147.445, 204.299 143.580 C 204.166 138.863, 202.370 136, 199.544 136 C 197.271 136, 197.142 136.354, 196.829 143.502 M 288.923 136.750 C 288.881 137.162, 288.718 138.175, 288.560 139 C 288.402 139.825, 288.630 141.400, 289.066 142.500 C 289.655 143.984, 289.878 143.404, 289.930 140.250 C 289.968 137.912, 289.775 136, 289.500 136 C 289.225 136, 288.966 136.338, 288.923 136.750 M 291.750 137.662 C 292.438 137.940, 293.563 137.940, 294.250 137.662 C 294.938 137.385, 294.375 137.158, 293 137.158 C 291.625 137.158, 291.063 137.385, 291.750 137.662 M 297.295 139.448 C 296.344 140.531, 296.396 140.938, 297.545 141.379 C 298.515 141.751, 299 141.281, 299 139.969 C 299 137.665, 298.891 137.631, 297.295 139.448 M 41.078 149.333 C 39.935 151.991, 39 154.579, 39 155.083 C 39 155.587, 40.770 156, 42.934 156 C 46.531 156, 46.831 155.796, 46.436 153.620 C 46.199 152.311, 45.364 149.724, 44.581 147.870 L 43.157 144.500 41.078 149.333 M 161.725 148.116 C 158.436 155.987, 158.438 156, 162.908 156 C 166.928 156, 166.947 155.982, 166.334 152.750 C 165.995 150.963, 165.154 148.388, 164.465 147.028 L 163.212 144.557 161.725 148.116" stroke="none" fill="#049c94" fill-rule="evenodd"/></svg>