<svg xmlns="http://www.w3.org/2000/svg" width="1207" height="300" viewBox="0 0 1207 300" version="1.1"><path d="M 161.459 12.067 C 161.096 12.653, 161.070 13.403, 161.400 13.733 C 161.730 14.063, 162 13.906, 162 13.384 C 162 12.839, 164.937 12.601, 168.897 12.824 C 172.769 13.043, 176.608 12.742, 177.647 12.137 C 179.075 11.308, 177.507 11.054, 170.809 11.030 C 165.699 11.013, 161.846 11.439, 161.459 12.067 M 644.625 11.798 C 643.893 12.982, 659.252 13.204, 661 12.035 C 662.062 11.324, 659.959 11.026, 653.809 11.015 C 649.029 11.007, 644.896 11.359, 644.625 11.798 M 11.235 92.500 C 11.235 149.912, 11.526 171.088, 12.264 167.500 C 13.657 160.735, 13.650 24.313, 12.257 17.500 C 11.528 13.932, 11.235 35.412, 11.235 92.500 M 1160.750 25.732 C 1163.088 25.943, 1166.912 25.943, 1169.250 25.732 C 1171.588 25.522, 1169.675 25.349, 1165 25.349 C 1160.325 25.349, 1158.412 25.522, 1160.750 25.732 M 745.349 60 C 745.349 64.675, 745.522 66.588, 745.732 64.250 C 745.943 61.912, 745.943 58.087, 745.732 55.750 C 745.522 53.412, 745.349 55.325, 745.349 60 M 873.448 92.500 C 873.447 110.650, 873.582 118.216, 873.748 109.314 C 873.913 100.411, 873.914 85.561, 873.749 76.314 C 873.583 67.066, 873.448 74.350, 873.448 92.500 M 1093.437 95 C 1093.437 109.575, 1093.577 115.537, 1093.747 108.250 C 1093.918 100.962, 1093.918 89.037, 1093.747 81.750 C 1093.577 74.462, 1093.437 80.425, 1093.437 95 M 46.370 108 C 46.370 113.775, 46.535 116.138, 46.737 113.250 C 46.939 110.362, 46.939 105.638, 46.737 102.750 C 46.535 99.862, 46.370 102.225, 46.370 108 M 151.803 111.746 C 157.470 111.925, 166.470 111.924, 171.803 111.745 C 177.136 111.565, 172.500 111.419, 161.500 111.420 C 150.500 111.421, 146.136 111.568, 151.803 111.746 M 634.803 111.746 C 640.470 111.925, 649.470 111.924, 654.803 111.745 C 660.136 111.565, 655.500 111.419, 644.500 111.420 C 633.500 111.421, 629.136 111.568, 634.803 111.746 M 745.343 125.500 C 745.346 129.900, 745.522 131.576, 745.733 129.224 C 745.945 126.872, 745.942 123.272, 745.727 121.224 C 745.512 119.176, 745.339 121.100, 745.343 125.500 M 73.068 214.874 C 72.391 216.138, 72 226.202, 72 242.363 C 72 264.206, 72.225 268.082, 73.571 269.429 C 75.345 271.202, 75.963 271.310, 77.766 270.166 C 78.749 269.542, 78.973 263.110, 78.766 241.431 C 78.501 213.578, 78.494 213.499, 76.318 213.189 C 74.940 212.993, 73.742 213.614, 73.068 214.874 M 456.667 213.667 C 456.300 214.033, 456 218.957, 456 224.609 L 456 234.884 451.750 232.454 C 441.311 226.486, 428.141 231.945, 424.138 243.899 C 420.312 255.328, 426.953 267.640, 438.161 269.896 C 445.541 271.381, 452.167 269.675, 455.235 265.500 C 455.639 264.950, 455.976 265.423, 455.985 266.550 C 456 268.574, 457.714 271, 459.129 271 C 459.529 271, 460.564 270.293, 461.429 269.429 C 462.777 268.080, 463 264.139, 463 241.629 C 463 222.562, 462.672 215.072, 461.800 214.200 C 460.493 212.893, 457.728 212.605, 456.667 213.667 M 546.667 213.667 C 546.300 214.033, 546 226.578, 546 241.544 C 546 263.973, 546.252 268.965, 547.436 269.947 C 548.502 270.832, 549.404 270.854, 550.936 270.034 C 552.942 268.960, 553 268.182, 553 242.165 C 553 222.681, 552.674 215.074, 551.800 214.200 C 550.493 212.893, 547.728 212.605, 546.667 213.667 M 969.238 214.162 C 968.317 215.083, 968 222.111, 968 241.629 C 968 264.139, 968.223 268.080, 969.571 269.429 C 970.436 270.293, 971.506 271, 971.949 271 C 974.697 271, 975.025 267.488, 974.766 240.878 C 974.508 214.311, 974.440 213.491, 972.488 213.212 C 971.382 213.053, 969.919 213.481, 969.238 214.162 M 1159.898 217.263 C 1152.755 222.021, 1151.311 230.650, 1156.604 236.941 C 1162.053 243.417, 1171.559 242.685, 1176.034 235.445 C 1180.108 228.853, 1177.328 219.289, 1170.510 216.440 C 1165.801 214.472, 1163.863 214.622, 1159.898 217.263 M 1088.250 218.644 C 1082.594 220.612, 1081 221.595, 1081 223.115 C 1081 226.267, 1083.440 226.351, 1092.022 223.493 C 1099.070 221.146, 1100.073 220.521, 1099.806 218.649 C 1099.382 215.672, 1096.794 215.671, 1088.250 218.644 M 34.832 218.750 C 33.054 220.856, 13 266.483, 13 268.424 C 13 270.055, 15.446 271.150, 17.408 270.397 C 18.183 270.100, 19.870 267.422, 21.158 264.445 L 23.500 259.034 38.305 259.017 L 53.110 259 55.483 264.365 C 58.058 270.188, 60.496 271.932, 62.817 269.612 C 64.099 268.330, 63.024 265.286, 54.069 244.825 C 48.455 231.996, 43.207 220.488, 42.407 219.250 C 40.666 216.555, 36.896 216.306, 34.832 218.750 M 273.200 218.200 C 271.482 219.918, 271.712 221.429, 274.004 223.504 C 275.660 225.002, 276.442 225.120, 278.504 224.180 C 282.654 222.289, 281.177 217, 276.500 217 C 275.345 217, 273.860 217.540, 273.200 218.200 M 334.200 218.200 C 330.859 221.541, 335.110 226.182, 339.626 224.124 C 343.673 222.281, 342.096 217, 337.500 217 C 336.345 217, 334.860 217.540, 334.200 218.200 M 640.250 218.121 C 638.499 219.913, 638.453 267.053, 640.200 268.800 C 642.020 270.620, 662.663 270.383, 668.056 268.480 C 674.083 266.354, 678.491 262.722, 681.728 257.216 C 684.174 253.054, 684.499 251.501, 684.488 244 C 684.474 234.403, 682.716 229.889, 676.838 224.362 C 670.620 218.516, 667.675 217.593, 654 217.200 C 644.770 216.935, 641.173 217.176, 640.250 218.121 M 899.571 219.571 C 898.630 220.513, 898 222.867, 898 225.446 C 898 229.428, 897.776 229.795, 895 230.350 C 892.837 230.783, 892 231.522, 892 233 C 892 234.478, 892.837 235.217, 895 235.650 L 898 236.250 898 252.054 C 898 265.087, 898.275 268.133, 899.571 269.429 C 901.457 271.315, 902.219 271.381, 903.800 269.800 C 904.635 268.965, 905 263.644, 905 252.300 L 905 236 907.378 236 C 908.685 236, 910.315 235.325, 911 234.500 C 912.668 232.491, 910.663 230, 907.378 230 C 905.204 230, 905 229.587, 905 225.200 C 905 218.718, 902.754 216.389, 899.571 219.571 M 1158.648 220.837 C 1156.037 223.570, 1155.843 224.277, 1156.360 229.162 C 1157.124 236.380, 1157.259 237.074, 1157.798 236.535 C 1158.054 236.280, 1159.204 236.730, 1160.354 237.535 C 1162.780 239.235, 1168.275 239.458, 1171.055 237.970 C 1174.060 236.362, 1176.252 231.232, 1175.691 227.120 C 1174.584 219.004, 1174.816 219.216, 1166 218.311 C 1162.008 217.902, 1161.178 218.187, 1158.648 220.837 M 1160 228.083 C 1160 234.113, 1160.318 236.057, 1161.250 235.736 C 1161.938 235.499, 1162.482 234.111, 1162.461 232.652 C 1162.430 230.581, 1162.899 230, 1164.604 230 C 1165.804 230, 1167.056 230.704, 1167.386 231.563 C 1167.716 232.423, 1168.434 232.850, 1168.981 232.511 C 1169.555 232.157, 1169.726 232.550, 1169.385 233.440 C 1168.806 234.947, 1171.499 236.835, 1172.623 235.710 C 1173.579 234.755, 1169.819 229.996, 1168.641 230.670 C 1168.013 231.029, 1168.513 230.208, 1169.750 228.847 C 1170.987 227.485, 1172 225.638, 1172 224.742 C 1172 222.291, 1168.028 220, 1163.777 220 L 1160 220 1160 228.083 M 646 244.150 L 646 265.299 654.885 264.669 C 665.091 263.944, 668.412 262.911, 672.227 259.271 C 675.775 255.886, 677.141 251.535, 677.187 243.465 C 677.238 234.626, 674.187 228.553, 668.068 225.318 C 664.440 223.399, 662.162 223, 654.843 223 L 646 223 646 244.150 M 1162.429 225.047 C 1162.429 226.725, 1162.975 227.041, 1165.456 226.797 C 1167.394 226.607, 1168.603 225.870, 1168.815 224.750 C 1169.078 223.365, 1168.446 223, 1165.788 223 C 1163.069 223, 1162.429 223.391, 1162.429 225.047 M 32.308 239.016 L 26.251 253 38.126 253 C 44.657 253, 50 252.748, 50 252.440 C 50 251.910, 39 225.763, 38.568 225.266 C 38.456 225.137, 35.639 231.324, 32.308 239.016 M 120.331 231.874 C 115.639 234.075, 114 236.433, 114 240.980 C 114 245.530, 117.428 248.312, 126.932 251.477 C 134.820 254.104, 139 256.726, 139 259.045 C 139 259.620, 137.895 261.195, 136.545 262.545 C 133.115 265.976, 126.266 265.932, 120.310 262.441 C 115.854 259.830, 112 259.847, 112 262.478 C 112 264.875, 117.815 268.794, 123.031 269.913 C 131.655 271.763, 139.806 269.605, 143.912 264.385 C 149.019 257.892, 144.432 250.921, 132.500 247.045 C 123.884 244.247, 121 242.505, 121 240.099 C 121 235.323, 129.467 233.595, 136.408 236.955 C 141.615 239.476, 144.500 239.329, 144.500 236.542 C 144.500 231.228, 128.354 228.109, 120.331 231.874 M 165.459 231.880 C 157.614 235.443, 153.432 243.132, 154.213 252.552 C 155.267 265.261, 166.718 272.861, 180.503 269.999 C 186.880 268.675, 192.381 265.251, 192.803 262.343 C 193.311 258.836, 190.185 258.689, 185.208 261.985 C 179.333 265.877, 170.872 266.260, 166.514 262.832 C 164.228 261.035, 161 255.589, 161 253.532 C 161 253.239, 167.885 253, 176.300 253 C 194.874 253, 195.431 252.692, 192.956 243.781 C 190.755 235.854, 182.737 230.044, 174 230.044 C 171.525 230.044, 167.681 230.870, 165.459 231.880 M 204.238 231.162 C 203.344 232.056, 203 237.478, 203 250.665 C 203 268.095, 203.094 268.980, 205.064 270.034 C 209.098 272.193, 210 269.873, 210 257.345 C 210 242.637, 211.057 239.886, 217.648 237.449 C 224.307 234.988, 225.184 234.213, 223.944 231.895 C 223.330 230.747, 221.859 230.001, 220.215 230.004 C 217.071 230.008, 211.055 233.380, 210.882 235.235 C 210.817 235.931, 210.476 235.150, 210.125 233.500 C 209.428 230.224, 206.385 229.015, 204.238 231.162 M 230.709 230.624 C 229.357 231.976, 230.033 234.280, 236.646 250.848 C 243.885 268.984, 245.632 271.803, 248.637 270.194 C 250.856 269.006, 265.439 233.587, 264.605 231.412 C 263.934 229.664, 260.605 229.564, 259.212 231.250 C 258.643 231.938, 255.738 238.770, 252.755 246.433 L 247.331 260.366 241.410 245.433 C 236.707 233.575, 235.069 230.440, 233.453 230.208 C 232.333 230.047, 231.099 230.235, 230.709 230.624 M 274.238 231.162 C 273.347 232.053, 273 237.368, 273 250.129 C 273 264.912, 273.261 268.118, 274.571 269.429 C 276.503 271.360, 277.423 271.401, 278.900 269.620 C 279.693 268.665, 279.961 262.442, 279.773 249.370 C 279.512 231.331, 279.411 230.487, 277.488 230.212 C 276.382 230.053, 274.919 230.481, 274.238 231.162 M 304.500 231.265 C 298.938 233.555, 296.108 236.143, 293.548 241.280 C 290.260 247.877, 290.274 253.151, 293.597 259.818 C 297.179 267.006, 302.907 270.375, 311.547 270.375 C 318.455 270.375, 323.370 268.106, 322.784 265.187 C 322.426 263.405, 321.608 263.356, 312.362 264.563 C 307.480 265.200, 307.036 265.060, 303.418 261.744 C 299.893 258.514, 299.580 257.776, 299.199 251.784 C 298.737 244.525, 300.352 240.126, 304.472 237.426 C 307.253 235.604, 314.848 235.313, 317.838 236.913 C 321.886 239.080, 325.271 235.460, 321.981 232.483 C 319.575 230.306, 308.675 229.546, 304.500 231.265 M 335.200 231.200 C 334.355 232.045, 334 237.773, 334 250.578 C 334 270.279, 334.535 272.389, 338.936 270.034 C 340.906 268.980, 341 268.095, 341 250.665 C 341 232.574, 340.564 230, 337.500 230 C 336.895 230, 335.860 230.540, 335.200 231.200 M 364.469 231.062 C 360.676 232.165, 355.134 237.478, 353.352 241.718 C 351.736 245.563, 351.580 254.758, 353.064 258.685 C 354.347 262.081, 358.578 266.708, 362 268.456 C 368.378 271.714, 378.380 271.002, 384.171 266.878 C 389.851 262.833, 393.091 252.767, 391.097 245.359 C 387.876 233.399, 376.828 227.467, 364.469 231.062 M 486.436 231.070 C 481.725 232.439, 476.192 238.614, 474.465 244.429 C 470.015 259.413, 482.341 272.817, 498.310 270.360 C 507.920 268.881, 515.362 263.200, 511.443 260.335 C 509.916 259.218, 509.231 259.274, 507.066 260.693 C 501.737 264.188, 499.350 264.988, 494.235 264.994 C 489.666 264.999, 488.515 264.571, 485.520 261.750 C 483.623 259.962, 481.781 257.262, 481.427 255.750 L 480.783 253 495.310 253 C 503.299 253, 510.548 252.727, 511.418 252.393 C 515.007 251.016, 512.271 239.266, 507.320 234.788 C 502.604 230.524, 493.746 228.947, 486.436 231.070 M 574.347 232.001 C 566.374 236.056, 562.426 245.798, 564.429 256.475 C 565.204 260.602, 569.917 266.387, 574.398 268.710 C 579.100 271.147, 587.751 270.935, 592.266 268.271 C 595.145 266.572, 596 266.395, 596 267.499 C 596 269.737, 599.816 271.397, 601.585 269.929 C 602.786 268.932, 602.995 265.366, 602.771 249.610 L 602.500 230.500 600 230.500 C 598.405 230.500, 597.160 231.275, 596.560 232.640 L 595.621 234.779 592.813 232.704 C 588.636 229.616, 579.705 229.276, 574.347 232.001 M 706.336 231.222 C 701.447 232.795, 695.949 239.069, 694.473 244.759 C 690.789 258.961, 700.077 270.489, 715.093 270.352 C 725.953 270.252, 735.709 264.280, 731.647 260.218 C 730.248 258.820, 729.680 258.947, 725.799 261.529 C 720.353 265.151, 711.398 266.146, 707.459 263.565 C 704.773 261.805, 701.010 256.375, 701.004 254.250 C 701.001 253.304, 704.758 253, 716.465 253 C 730.382 253, 732.027 252.818, 732.901 251.185 C 734.634 247.947, 731.415 238.495, 727.316 234.786 C 722.521 230.447, 713.506 228.915, 706.336 231.222 M 743.667 230.667 C 743.300 231.033, 743 239.753, 743 250.044 C 743 270.314, 743.515 272.400, 747.936 270.034 C 749.857 269.006, 750 268.039, 750 256.100 C 750 241.040, 750.949 238.947, 758.813 236.662 C 762.269 235.658, 763.583 234.746, 763.815 233.186 C 764.487 228.672, 754.800 229.592, 751.460 234.360 C 750.015 236.423, 750 236.424, 750 234.423 C 750 231.022, 745.801 228.532, 743.667 230.667 M 773.068 231.874 C 772.431 233.063, 772 240.728, 772 250.863 C 772 264.979, 772.266 268.123, 773.571 269.429 C 777.591 273.449, 778.758 270.404, 779.153 254.854 C 779.452 243.105, 779.767 240.913, 781.419 239.089 C 783.897 236.352, 788.590 235.146, 792.973 236.119 C 798.437 237.332, 798.998 238.895, 799.014 252.941 C 799.029 266.797, 799.460 269.579, 801.725 270.448 C 805.082 271.736, 805.802 269.235, 806.155 255.060 C 806.453 243.104, 806.763 240.917, 808.419 239.088 C 810.897 236.352, 815.590 235.146, 819.973 236.119 C 825.437 237.332, 825.998 238.895, 826.014 252.941 C 826.021 259.849, 826.291 266.481, 826.612 267.681 C 827.270 270.132, 829.258 271.222, 831.500 270.362 C 832.743 269.885, 833 267.168, 833 254.528 C 833 240.554, 832.824 239.046, 830.905 236.607 C 824.814 228.863, 812.541 227.955, 804.855 234.680 C 803.403 235.951, 802.919 235.828, 800.717 233.626 C 796.315 229.224, 786.895 228.935, 781.673 233.042 L 779.143 235.032 778.822 232.766 C 778.394 229.752, 774.524 229.152, 773.068 231.874 M 855.384 231.913 C 843.081 237.500, 840.274 255.274, 850.137 265.137 C 856.490 271.490, 868.773 272.380, 874.597 266.909 C 876.894 264.751, 877 264.739, 877 266.626 C 877 268.584, 878.728 271, 880.129 271 C 880.529 271, 881.564 270.293, 882.429 269.429 C 884.669 267.188, 884.776 232.889, 882.548 231.040 C 880.414 229.269, 877.547 230.189, 877.180 232.762 L 876.861 235.003 872.592 232.501 C 867.407 229.463, 861.244 229.252, 855.384 231.913 M 927.907 232.328 C 914.401 239.461, 913.936 260.538, 927.122 267.948 C 932.869 271.178, 941.688 271.274, 947.707 268.172 C 957.249 263.253, 960.529 249.233, 954.438 239.398 C 950.668 233.312, 944.699 230, 937.500 230 C 934 230, 930.882 230.757, 927.907 232.328 M 997.500 231.890 C 990.132 235.291, 985.982 242.097, 986.022 250.718 C 986.067 260.451, 991.918 267.959, 1000.971 269.900 C 1007.455 271.291, 1014.929 269.772, 1019.171 266.202 C 1027.796 258.945, 1028.158 242.918, 1019.868 235.298 C 1014.105 230, 1004.700 228.567, 997.500 231.890 M 1045.168 232.089 C 1034.840 237.336, 1031.420 251.854, 1038.004 262.506 C 1042.565 269.886, 1055.518 272.842, 1063.266 268.271 L 1067 266.067 1067 269.311 C 1067 278.747, 1054.494 283.199, 1043.872 277.545 C 1039.945 275.454, 1038.994 275.284, 1037.467 276.400 C 1030.966 281.154, 1050.302 288.331, 1060.604 284.987 C 1066.245 283.156, 1069.773 280.366, 1072.023 275.956 C 1073.797 272.479, 1074 270.030, 1074 252.162 C 1074 235.754, 1073.738 232.027, 1072.513 231.011 C 1070.620 229.440, 1067.961 230.434, 1067.301 232.958 C 1066.803 234.861, 1066.725 234.857, 1063.899 232.767 C 1059.569 229.566, 1050.763 229.247, 1045.168 232.089 M 1088.200 231.200 C 1087.354 232.046, 1087 237.792, 1087 250.665 C 1087 268.095, 1087.094 268.980, 1089.064 270.034 C 1093.465 272.389, 1094 270.279, 1094 250.578 C 1094 232.576, 1093.562 230, 1090.500 230 C 1089.895 230, 1088.860 230.540, 1088.200 231.200 M 1117.604 230.986 C 1105.144 234.942, 1100.871 254.735, 1110.298 264.831 C 1116.591 271.572, 1128.224 272.545, 1135.364 266.928 C 1137.075 265.582, 1137.797 265.364, 1137.437 266.302 C 1136.897 267.712, 1139.355 271, 1140.949 271 C 1143.585 271, 1144.035 267.555, 1143.773 249.370 L 1143.500 230.500 1141 230.500 C 1139.405 230.500, 1138.160 231.275, 1137.560 232.640 L 1136.621 234.779 1133.841 232.725 C 1130.708 230.408, 1122.270 229.504, 1117.604 230.986 M 168.315 236.411 C 165.279 237.781, 163.079 240.823, 161.559 245.750 L 160.865 248 173.558 248 L 186.250 248 185.602 244.750 C 184.138 237.406, 175.424 233.203, 168.315 236.411 M 366.216 236.505 C 359.757 239.311, 357.119 250.483, 361.015 258.530 C 363.330 263.312, 366.300 265, 372.401 265 C 379.605 265, 384 259.469, 384 250.403 C 384 244.282, 381.755 239.431, 377.810 237.026 C 373.943 234.668, 370.772 234.526, 366.216 236.505 M 438.030 236.279 C 433.728 238.456, 431 243.657, 431 249.680 C 431 260.031, 434.940 265, 443.146 265 C 453.958 265, 459.344 252.302, 453.405 240.816 C 450.870 235.914, 443.216 233.655, 438.030 236.279 M 487.299 236.960 C 484.082 238.921, 481 243.564, 481 246.450 C 481 247.767, 482.878 248, 493.500 248 C 501.426 248, 506 247.622, 506 246.968 C 506 244.054, 502.734 238.808, 499.810 237.026 C 495.636 234.481, 491.400 234.458, 487.299 236.960 M 578.216 236.505 C 571.757 239.311, 569.119 250.483, 573.015 258.530 C 575.330 263.312, 578.300 265, 584.401 265 C 591.605 265, 596 259.469, 596 250.403 C 596 244.282, 593.755 239.431, 589.810 237.026 C 585.943 234.668, 582.772 234.526, 578.216 236.505 M 707.190 237.026 C 704.266 238.808, 701 244.054, 701 246.968 C 701 247.622, 705.574 248, 713.500 248 C 721.426 248, 726 247.622, 726 246.968 C 726 246.400, 725.352 244.385, 724.560 242.490 C 722.878 238.463, 717.770 235.007, 713.500 235.007 C 711.850 235.007, 709.010 235.916, 707.190 237.026 M 859.030 236.279 C 854.728 238.456, 852 243.657, 852 249.680 C 852 260.061, 855.935 265, 864.207 265 C 867.990 265, 869.599 264.435, 872.038 262.250 C 879.267 255.774, 877.681 239.854, 869.466 236.421 C 865.299 234.680, 862.271 234.639, 859.030 236.279 M 932 236.702 C 925.531 240.025, 923.170 249.387, 926.624 258.018 C 928.482 262.662, 932.124 265, 937.500 265 C 942.876 265, 946.518 262.662, 948.376 258.018 C 954.016 243.923, 943.808 230.636, 932 236.702 M 1000.321 236.613 C 996.182 238.655, 994 243.430, 994 250.451 C 994 260.282, 997.989 265, 1006.299 265 C 1010.300 265, 1011.654 264.500, 1013.996 262.158 C 1021.157 254.997, 1019.680 240.449, 1011.393 236.516 C 1007.357 234.601, 1004.348 234.627, 1000.321 236.613 M 1049.325 236.413 C 1045.134 238.297, 1043.065 241.652, 1042.345 247.736 C 1041.116 258.112, 1046.235 265, 1055.177 265 C 1059.556 265, 1060.636 264.564, 1063.600 261.600 C 1066.824 258.376, 1067 257.835, 1067 251.147 C 1067 243.304, 1065.806 239.758, 1062.416 237.537 C 1058.990 235.292, 1052.968 234.775, 1049.325 236.413 M 1119.315 236.464 C 1111.094 240.039, 1109.712 256.214, 1117.096 262.427 C 1120.762 265.512, 1128.152 265.983, 1131.883 263.369 C 1137.276 259.592, 1138.860 247.055, 1134.720 240.912 C 1130.862 235.187, 1125.686 233.693, 1119.315 236.464" stroke="none" fill="#9fa1a2" fill-rule="evenodd"/><path d="M 159.350 19.500 C 139.365 72.615, 112.649 141.139, 103.910 161.699 C 101.760 166.758, 100 171.111, 100 171.372 C 100 171.633, 104.706 171.846, 110.457 171.846 C 120.335 171.846, 120.948 171.726, 121.535 169.673 C 124.323 159.914, 128.775 145.674, 131.905 136.500 L 135.659 125.500 146.079 124.974 C 151.811 124.685, 163.302 124.635, 171.616 124.863 L 186.733 125.278 193.871 147.389 C 197.797 159.550, 201.007 170.021, 201.005 170.657 C 201.001 171.493, 206.279 171.814, 220 171.814 C 230.450 171.814, 239 171.687, 239 171.532 C 239 171.377, 236.701 165.907, 233.891 159.375 C 223.394 134.977, 204.019 83.537, 181.961 21.500 L 178.760 12.500 170.372 12.500 L 161.984 12.500 159.350 19.500 M 643.841 15 C 625.705 64.313, 585.103 167.936, 582.840 170.683 C 582.100 171.582, 584.478 171.863, 592.718 171.852 L 603.571 171.838 609.794 151.865 C 613.217 140.881, 616.666 130.342, 617.458 128.447 L 618.898 125 628.699 124.814 C 650.622 124.399, 668.469 125.157, 669.575 126.549 C 670.166 127.294, 673.763 137.783, 677.569 149.858 L 684.488 171.814 703.244 171.814 C 713.560 171.814, 722 171.687, 722 171.532 C 722 171.377, 720.387 167.710, 718.415 163.384 C 715.184 156.292, 702.188 124.044, 698.661 114.365 C 697.887 112.239, 693.335 99.925, 688.546 87 C 683.757 74.075, 677.367 56.525, 674.344 48 C 671.322 39.475, 667.235 28, 665.261 22.500 L 661.672 12.500 653.216 12.500 C 645.109 12.500, 644.723 12.603, 643.841 15 M 12.733 22.500 C 13.739 34.303, 13.727 150.828, 12.719 162.688 L 11.938 171.876 29.989 171.829 L 48.041 171.783 47.538 160.641 C 47.261 154.514, 46.784 137.625, 46.479 123.110 L 45.923 96.720 64.211 97.401 C 74.270 97.775, 85.425 98.315, 89 98.600 L 95.500 99.119 95.500 88.986 L 95.500 78.853 82.500 79.446 C 75.350 79.772, 64.259 80.256, 57.853 80.521 L 46.207 81.003 46.546 63.251 C 46.732 53.488, 46.969 42.179, 47.072 38.121 L 47.258 30.742 61.379 31.401 C 81.065 32.319, 91.079 32.943, 94 33.432 L 96.500 33.850 96.500 23.675 L 96.500 13.500 54.233 13.500 L 11.966 13.500 12.733 22.500 M 263.816 26 C 264.713 42.397, 264.700 144.038, 263.798 159.679 L 263.095 171.857 281.627 171.857 C 298.565 171.857, 300.104 171.713, 299.515 170.179 C 299.161 169.255, 298.636 159.050, 298.350 147.500 C 297.416 109.825, 297.449 98.998, 298.500 99.003 C 299.050 99.005, 301.063 102.043, 302.972 105.754 C 304.882 109.464, 308.295 115.875, 310.556 120 C 312.817 124.125, 317.067 132, 320 137.500 C 322.933 143, 327.176 150.875, 329.428 155 C 331.680 159.125, 334.620 164.597, 335.962 167.161 L 338.402 171.822 358.258 171.822 L 378.114 171.822 376.480 169.329 C 363.346 149.284, 331.270 95.285, 332.116 94.643 C 332.327 94.483, 334.975 93.314, 338 92.046 C 355.499 84.708, 364.038 72.457, 365.564 52.500 C 365.926 47.762, 363.648 38.190, 360.854 32.715 C 356.796 24.759, 346.029 16.642, 336.500 14.355 C 334.850 13.959, 317.667 13.605, 298.316 13.568 L 263.131 13.500 263.816 26 M 411.916 15 C 411.871 15.825, 411.702 17.400, 411.542 18.500 C 411.382 19.600, 410.939 23.650, 410.559 27.500 C 410.178 31.350, 409.711 35.625, 409.519 37 C 409.328 38.375, 408.901 41.750, 408.570 44.500 C 408.239 47.250, 407.771 50.850, 407.530 52.500 C 406.571 59.049, 406.087 62.714, 405.546 67.500 C 405.235 70.250, 404.786 73.625, 404.548 75 C 404.310 76.375, 403.838 79.975, 403.500 83 C 403.162 86.025, 402.717 89.625, 402.511 91 C 401.915 94.992, 401.042 101.212, 400.545 105 C 399.789 110.776, 398.319 120.014, 397.535 123.921 C 397.267 125.253, 396.797 128.628, 396.489 131.421 C 396.182 134.215, 395.743 137.175, 395.515 138 C 395.287 138.825, 394.819 141.525, 394.475 144 C 394.131 146.475, 392.988 153.450, 391.935 159.500 C 390.882 165.550, 390.016 170.808, 390.010 171.185 C 390.005 171.562, 394.725 171.842, 400.500 171.807 L 411 171.745 411.084 168.122 C 411.130 166.130, 411.313 162.475, 411.492 160 C 411.671 157.525, 412.092 151.450, 412.429 146.500 C 412.766 141.550, 413.257 134.350, 413.519 130.500 C 413.782 126.650, 414.245 119.675, 414.550 115 C 414.854 110.325, 415.297 104.925, 415.533 103 C 415.770 101.075, 416.223 96.650, 416.540 93.166 C 416.857 89.683, 417.268 85.633, 417.453 84.166 C 417.638 82.700, 418.118 78.429, 418.519 74.675 C 418.921 70.921, 419.561 68.221, 419.943 68.675 C 420.325 69.129, 422.481 73.550, 424.735 78.500 C 426.988 83.450, 430.717 91.550, 433.022 96.500 C 435.326 101.450, 440.142 112.025, 443.724 120 C 447.305 127.975, 451.686 137.650, 453.458 141.500 C 455.230 145.350, 459.085 153.788, 462.026 160.251 L 467.372 172.002 471.436 171.844 C 475.403 171.690, 475.565 171.540, 478.225 165.593 C 483.479 153.844, 512.774 89.419, 516.463 81.500 C 518.513 77.100, 520.879 71.794, 521.720 69.709 C 522.562 67.623, 523.419 66.086, 523.626 66.293 C 523.999 66.666, 524.339 69.483, 525.525 82 C 525.863 85.575, 526.310 90.075, 526.516 92 C 526.723 93.925, 527.181 99.325, 527.535 104 C 527.888 108.675, 528.347 113.850, 528.556 115.500 C 529.089 119.709, 530.153 131.641, 530.474 137 C 530.622 139.475, 531.079 146, 531.489 151.500 C 531.899 157, 532.294 163.832, 532.367 166.682 L 532.500 171.863 550.813 171.855 L 569.125 171.848 568.568 169.174 C 568.261 167.703, 567.783 164.813, 567.505 162.750 C 567.227 160.688, 566.775 157.425, 566.500 155.500 C 565.542 148.796, 565.091 145.468, 564.464 140.500 C 564.117 137.750, 563.653 134.150, 563.432 132.500 C 563.212 130.850, 562.790 127.475, 562.496 125 C 562.201 122.525, 561.771 119.086, 561.541 117.357 C 561.311 115.628, 560.829 111.128, 560.471 107.357 C 560.112 103.586, 559.645 99.150, 559.433 97.500 C 559.220 95.850, 558.802 92.025, 558.503 89 C 557.975 83.661, 557.544 79.799, 556.548 71.500 C 556.285 69.300, 555.828 65.025, 555.534 62 C 555.240 58.975, 554.812 55.150, 554.584 53.500 C 554.355 51.850, 553.886 47.800, 553.541 44.500 C 553.197 41.200, 552.740 37.150, 552.527 35.500 C 552.314 33.850, 551.827 28.907, 551.447 24.515 C 551.066 20.123, 550.664 15.916, 550.554 15.166 C 550.403 14.137, 548.023 13.759, 540.896 13.629 L 531.439 13.458 519.572 40.479 C 513.045 55.341, 501.600 80.035, 494.138 95.355 L 480.572 123.210 475.980 113.855 C 469.708 101.076, 451.590 62.041, 446.807 51.002 C 445.735 48.528, 444.227 45.153, 443.455 43.502 C 442.683 41.851, 439.418 34.461, 436.198 27.079 L 430.345 13.658 421.173 13.579 C 413.685 13.515, 411.984 13.776, 411.916 15 M 744.856 27 C 745.685 44.486, 745.683 141.568, 744.854 158.679 L 744.215 171.857 762.687 171.857 C 779.574 171.857, 781.103 171.713, 780.504 170.179 C 779.881 168.583, 779.112 146.119, 778.693 117.249 L 778.500 103.998 785.178 103.999 C 792.847 104, 805.961 102.391, 810.810 100.855 C 812.630 100.278, 814.655 99.693, 815.310 99.556 C 818.198 98.952, 822.504 96.732, 827.910 93.061 C 838.647 85.769, 845.029 72.592, 845.516 56.704 C 846.041 39.608, 840.456 27.993, 827.810 19.878 C 818.695 14.029, 815.927 13.677, 778.358 13.584 L 744.215 13.500 744.856 27 M 872.751 36.500 C 873.707 65.839, 873.712 118.843, 872.762 148.672 L 872.025 171.844 889.910 171.854 L 907.795 171.863 907.172 162.182 C 906.408 150.307, 906.401 33.780, 907.164 22 L 907.714 13.500 889.858 13.500 L 872.002 13.500 872.751 36.500 M 945.500 92.744 L 945.500 171.988 987.103 171.864 L 1028.705 171.740 1028.740 161.858 L 1028.775 151.975 1023.637 152.486 C 1013.158 153.527, 1001.192 154.197, 990.406 154.346 L 979.313 154.500 979.089 125.603 L 978.864 96.707 997.182 97.443 C 1027.109 98.645, 1028.511 98.636, 1028.400 97.250 C 1028.345 96.563, 1028.233 92.135, 1028.150 87.411 L 1028 78.821 1013.250 79.455 C 1005.138 79.803, 994.058 80.296, 988.630 80.550 L 978.760 81.011 979.356 57.756 C 979.683 44.965, 979.962 33.656, 979.976 32.623 C 979.999 30.846, 980.754 30.781, 994.250 31.396 C 1014.493 32.317, 1025.191 32.989, 1027.500 33.484 C 1029.397 33.891, 1029.500 33.389, 1029.500 23.706 L 1029.500 13.500 987.500 13.500 L 945.500 13.500 945.500 92.744 M 1059.749 25.500 C 1060.714 40.914, 1060.710 143.681, 1059.744 159.740 L 1059.008 171.979 1101.254 171.871 L 1143.500 171.763 1143.500 161.828 L 1143.500 151.893 1137 152.546 C 1124.718 153.781, 1121.468 153.947, 1108.136 154.026 C 1100.786 154.070, 1094.516 153.849, 1094.203 153.536 C 1092.762 152.095, 1093.786 22.176, 1095.297 14.715 C 1095.426 14.078, 1088.854 13.675, 1077.249 13.607 L 1058.997 13.500 1059.749 25.500 M 1161.424 15.097 C 1154.445 17.727, 1148.985 22.699, 1145.492 29.604 C 1136.397 47.579, 1148.690 70.181, 1168.274 71.493 C 1179.853 72.269, 1189.167 66.248, 1194.609 54.471 C 1198.861 45.268, 1198.745 38.987, 1194.151 29.655 C 1187.537 16.220, 1174.193 10.284, 1161.424 15.097 M 1163.275 17.914 C 1145.815 22.373, 1139.815 46.610, 1152.680 60.712 C 1161.234 70.088, 1177.532 70.314, 1186.664 61.183 C 1196.454 51.393, 1196.512 34.304, 1186.791 24.108 C 1181.541 18.601, 1171.224 15.884, 1163.275 17.914 M 1165.226 25.753 L 1156.952 26.082 1157.226 42.791 C 1157.488 58.742, 1157.591 59.500, 1159.500 59.500 C 1161.289 59.500, 1161.531 58.735, 1161.794 52.250 L 1162.088 45 1166.538 45 C 1170.545 45, 1171.262 45.380, 1173.744 48.814 C 1175.260 50.912, 1177.390 54.287, 1178.477 56.314 C 1180.019 59.187, 1181.060 60, 1183.201 60 L 1185.948 60 1182.881 54.750 C 1181.194 51.862, 1178.731 48.350, 1177.407 46.945 C 1174.518 43.879, 1174.393 43, 1176.845 43 C 1179.447 43, 1181.997 39.837, 1182.591 35.874 C 1183.155 32.102, 1180.069 26, 1177.596 26 C 1176.808 26, 1175.564 25.871, 1174.832 25.712 C 1174.099 25.554, 1169.777 25.573, 1165.226 25.753 M 298.560 26.904 C 297.907 27.959, 297.676 87.667, 298.320 88.710 C 298.879 89.614, 305.893 89.544, 310.854 88.584 C 326.300 85.595, 334.137 69.870, 330.971 48.216 C 328.823 33.523, 323.593 28.579, 308.993 27.435 C 304.872 27.112, 300.952 26.677, 300.282 26.468 C 299.612 26.259, 298.837 26.455, 298.560 26.904 M 779.011 43.750 C 779.018 52.963, 778.856 67.362, 778.652 75.750 C 778.297 90.337, 778.465 91.421, 781.042 91.188 C 783.337 90.980, 790.013 89.989, 792.320 89.515 C 798.733 88.197, 806.101 81.141, 809.044 73.500 C 810.524 69.655, 811.077 52.795, 809.925 46.626 C 808.218 37.489, 803.810 31.201, 797.167 28.425 C 795.260 27.629, 790.502 27, 786.378 27 L 779 27 779.011 43.750 M 1162 34.500 L 1162 40 1168.250 39.968 C 1175.960 39.929, 1178.265 38.462, 1177.820 33.878 C 1177.451 30.072, 1175.654 29.259, 1167.250 29.100 L 1162 29 1162 34.500 M 159.664 62.250 C 158.826 64.588, 156.730 70.100, 155.008 74.500 C 150.805 85.235, 142 110.026, 142 111.122 C 142 111.605, 150.775 112, 161.500 112 C 172.413 112, 181 111.603, 181 111.099 C 181 110.260, 171.805 83.498, 165.419 65.750 C 163.885 61.487, 162.306 58, 161.909 58 C 161.513 58, 160.502 59.913, 159.664 62.250 M 643.182 60.750 C 642.625 62.263, 639.834 69.575, 636.981 77 C 630.975 92.629, 625 109.594, 625 111.017 C 625 111.627, 632.388 112, 644.500 112 C 655.244 112, 664 111.600, 664 111.109 C 664 110.251, 655.794 86.466, 648.870 67.250 C 647.036 62.163, 645.235 58, 644.866 58 C 644.497 58, 643.740 59.237, 643.182 60.750" stroke="none" fill="#149d96" fill-rule="evenodd"/></svg>